Coordinates

Units are S.I. units (second, meters, Newtons, ...)
If the header above contains a line with 'inDegrees', this indicates whether rotational values are in degrees (yes) or radians (no).

inDegrees=no
nColumns=21
nRows=22
DataType=double
version=3
OpenSimVersion=4.6-2026-03-31-d6972f9e6
endheader
time	/jointset/ground_pelvis/pelvis_tilt/value	/jointset/ground_pelvis/pelvis_list/value	/jointset/ground_pelvis/pelvis_rotation/value	/jointset/ground_pelvis/pelvis_tx/value	/jointset/ground_pelvis/pelvis_ty/value	/jointset/ground_pelvis/pelvis_tz/value	/jointset/hip_r/hip_flexion_r/value	/jointset/hip_r/hip_adduction_r/value	/jointset/hip_r/hip_rotation_r/value	/jointset/walker_knee_r/knee_angle_r/value	/jointset/patellofemoral_r/knee_angle_r_beta/value	/jointset/ankle_r/ankle_angle_r/value	/jointset/subtalar_r/subtalar_angle_r/value	/jointset/hip_l/hip_flexion_l/value	/jointset/hip_l/hip_adduction_l/value	/jointset/hip_l/hip_rotation_l/value	/jointset/walker_knee_l/knee_angle_l/value	/jointset/patellofemoral_l/knee_angle_l_beta/value	/jointset/ankle_l/ankle_angle_l/value	/jointset/subtalar_l/subtalar_angle_l/value
139.996	-0.1826494788784771	-0.04097490164112543	-0.03437331469677348	1.167381080000077	0.9384046800000621	-0.3485393000000216	0.5110106452660578	0.02075375289603264	-0.1178124589169649	0.1679730610489932	0.1679730600000128	-0.07758686866255643	-0.1776726864790491	-0.2660566162036504	-0.04117588241314471	-0.1830149047471526	0.2722091835130683	0.2722091800000186	-0.4896133231522974	-0.1671471925399668
140	-0.1829406666566489	-0.03566851048936833	-0.03430624282277134	1.167811384136138	0.9376197987694842	-0.3476921094657962	0.5070857751987531	0.01913105488984193	-0.1169469332142716	0.1469630268893589	0.1469630258263364	-0.0707179432317238	-0.1734116702631582	-0.2638025097530589	-0.03897949985015535	-0.1819127838732832	0.2969370821700666	0.2969370793424183	-0.4911305989551963	-0.1775475267295344
140.004	-0.1831279551493212	-0.03040539737610499	-0.03420640560534858	1.168235798199867	0.9368278001350722	-0.3468530116831846	0.5030916540491068	0.01750373494784806	-0.1161081172565128	0.1263185100459357	0.1263185089623454	-0.06395327746175952	-0.1692130949974238	-0.2615799664364823	-0.03681955225260745	-0.1807274736050817	0.3217189102072022	0.3217189080368564	-0.4927601272175839	-0.1879799686107879
140.008	-0.1831100766583054	-0.02523120147458886	-0.03404385680270856	1.168648468843447	0.9360216355473822	-0.3460296194574627	0.4989614801952527	0.01587214499512583	-0.1153185143092975	0.1063982610701978	0.10639825995362	-0.05739699893474241	-0.1651519065569454	-0.2594187504600953	-0.03473560092060347	-0.1793832154005834	0.3466105880968713	0.3466105865302716	-0.4946091412618538	-0.1984773139030938
140.012	-0.1827910091837112	-0.02019606254086943	-0.03379418825587378	1.169043609175078	0.9351943724930128	-0.3452286094079043	0.4946334590674006	0.01424622364767807	-0.1145924690287795	0.08754788345503603	0.08754788228837783	-0.05115275812503488	-0.1613267045089307	-0.2573451412778237	-0.03277319494003939	-0.1778186498129219	0.3716716168333261	0.3716716157960358	-0.4967752438727212	-0.2090733771607863
140.016	-0.1820825332044774	-0.01535631597477958	-0.03344105254439349	1.169415516015146	0.934339205777871	-0.3444553127736263	0.4900535593327178	0.01264939366642482	-0.1139327625342899	0.07009425958838339	0.07009425835157901	-0.0453229499347598	-0.1578683527602511	-0.2553804647247564	-0.03098619735973313	-0.1759928827735855	0.3969659492100577	0.3969659486124036	-0.4993425208392219	-0.2198027246676516
140.02	-0.1809066668915677	-0.01077553711169737	-0.03297839814753661	1.169758571239061	0.9334494292717552	-0.3437133751150119	0.4851785203180706	0.01112142267872578	-0.1133280729302021	0.05434120525055595	0.05434120392260387	-0.04000729049309066	-0.1549451588155711	-0.2535399165802847	-0.02943832132556637	-0.1738902639984152	0.4225619646815241	0.4225619644247422	-0.5023785681164601	-0.2306997298562874
140.024	-0.1791979319393734	-0.006524800899889569	-0.03241231783814915	1.170067226014557	0.9325183721937345	-0.3430045054139362	0.4799791124331357	0.009720017142411117	-0.1127516067338956	0.04056665606007191	0.04056665462135733	-0.03530059228164403	-0.1527640116294944	-0.2518316724280885	-0.02820370336067299	-0.1715235571663989	0.448531536670204	0.4485315366528353	-0.5059324872228623	-0.2417970756565943
140.028	-0.1769054619103185	-0.002682155269899312	-0.03176237986136354	1.170335969632206	0.9315393070261364	-0.3423283348277049	0.4744435898163162	0.008521065327362576	-0.1121611692432246	0.0290214381291338	0.02902143656401188	-0.03128969540735316	-0.1515671147487423	-0.2502561545003892	-0.02736649093636812	-0.1689352257649851	0.4749483480568422	0.474948348181105	-0.510033787466202	-0.2531240781291116
140.032	-0.1739949747075553	0.0006685960702775756	-0.03106230325703722	1.170559288780474	0.9305053403244442	-0.3416824012451894	0.4685811592048063	0.007617568572096976	-0.1115008197097134	0.01992939972392792	0.01992939802330276	-0.02804964831717269	-0.1516242664609037	-0.2488052943803203	-0.02701953352064853	-0.16619663071705	0.5018856964049359	0.5018856965825373	-0.514692061066561	-0.2647052940013322
140.036	-0.1704505215501033	0.003439721255421917	-0.03035990127088729	1.170731628381729	0.9294093078893867	-0.3410622632204236	0.4624250931499984	0.007117342014090809	-0.1107039880242505	0.0134884679763745	0.01348846613975084	-0.02563934091860541	-0.1532210796648075	-0.2474617802164133	-0.02726225871186904	-0.1634051300088041	0.5294139896752927	0.5294139898319195	-0.5198972570202373	-0.2765596103065647
140.04	-0.1662758095970495	0.005541949829953757	-0.02971628214372512	1.170847369254824	0.9282437043416153	-0.3404617332291028	0.456034943962054	0.007139590812629697	-0.1096976698332842	0.009872025070687443	0.009872023107245626	-0.02409691201465641	-0.1566439908100886	-0.2461984400277331	-0.02819780238898658	-0.160679307531542	0.5575980691218786	0.5575980691996759	-0.5256203655751072	-0.2886996752862707
140.044	-0.1614949112712036	0.0068873097229973	-0.02920428974097323	1.170900838390338	0.9270006745611198	-0.3398732148765325	0.4494973049707663	0.007810550708227375	-0.1084072462539249	0.009229874242715699	0.009229872171246756	-0.02343540060101304	-0.1621632298943444	-0.2449778989059527	-0.02992955873413024	-0.1581526660468774	0.5864945079764023	0.5864945079342048	-0.5318143612757712	-0.3011315006766644
140.048	-0.1561522603106346	0.007392209545188949	-0.02890615453088837	1.170886364488711	0.925672085079898	-0.3392881275702256	0.4429246972656414	0.009258470799390874	-0.1067615017517823	0.0116880788751634	0.01168807672292446	-0.02363920553962995	-0.1700150970456323	-0.2437525520779722	-0.0325574167459598	-0.1559661250078444	0.6161490585613998	0.6161490583731069	-0.5384153264402409	-0.3138542157048018
140.052	-0.1503118824539266	0.006980565904485802	-0.02891038637473309	1.170798385510736	0.9242496857160007	-0.3386973977556731	0.4364523455033795	0.01160823397770734	-0.1046974086814571	0.01734716323629091	0.01734716103701155	-0.02466187707496461	-0.1803849424947409	-0.2424648689130245	-0.03617393306124204	-0.1542597014074672	0.6465943822102439	0.6465943818621588	-0.5453437348453543	-0.3268599696571902
140.056	-0.1440558274036701	0.005586836204837346	-0.02930804296153086	1.170631606730676	0.9227253653674308	-0.3380919890520433	0.4302328267752823	0.01497587495268089	-0.1021642561566894	0.02627850857834709	0.02627850636980673	-0.02642557787400332	-0.1933921440966728	-0.2410480588440376	-0.04086060689742513	-0.1531638293866641	0.6778481321281024	0.6778481316160985	-0.5525058784032313	-0.340133866951674
140.06	-0.1374818183201185	0.003158838235909405	-0.0301885781992591	1.170381198897718	0.9210914964753603	-0.3374634394063485	0.4244288387544205	0.01946324379156596	-0.09912680971934112	0.03851916295008267	0.03851916077178742	-0.02882230019977615	-0.2090781776932429	-0.2394270988399919	-0.04668439160772904	-0.1527908237968181	0.7099114347381195	0.709911434065303	-0.5597953947591175	-0.3536537807735008
140.064	-0.1307002311298734	-0.0003398068500882999	-0.03163548057708319	1.17004301942558	0.9193413493029949	-0.3368043750343103	0.4192046109638498	0.02515309278973123	-0.09556740026969096	0.05406562802883138	0.05406562592022612	-0.03171670222626837	-0.2273986585141078	-0.23752002349017	-0.05369462774034005	-0.1532269793766909	0.7427678400358382	0.7427678392110275	-0.5670948680622991	-0.36739002776821
140.068	-0.1238305986694761	-0.004927799133043618	-0.033721894447231	1.169613836398815	0.9174695455142925	-0.3361089766927357	0.4147166932063452	0.03210486547071484	-0.09148704488025984	0.07286744662374595	0.07286744462311183	-0.03495024466023859	-0.2482199511427943	-0.2352393016804615	-0.06192061382213023	-0.1545257470291889	0.7763828254147238	0.7763828244516779	-0.5742775245787475	-0.3813050446606913
140.072	-0.1169978518329205	-0.01060498298046759	-0.03650642906800487	1.169091534807531	0.9154725161320791	-0.3353733782766771	0.4111049189962837	0.04035139084974979	-0.08690576783094561	0.09482152391345694	0.09482152205730841	-0.03834621512793163	-0.2713206056568324	-0.2324931413067413	-0.07136995719441544	-0.1567023748700675	0.810703894277614	0.8107038931947017	-0.5812090741925081	-0.3953532208357354
140.076	-0.1103284912145698	-0.01735186688212326	-0.04002939117827051	1.168475285595057	0.913348931435793	-0.3345959786997855	0.4084842671025136	0.04989655466733147	-0.08186222720271333	0.1197680117311169	0.1197680100537184	-0.04171531106520898	-0.2963975202636375	-0.2291866276079657	-0.08202768856037848	-0.1597303283687042	0.8456612346435687	0.8456612334635119	-0.587749755860686	-0.4094809449830991
140.08	-0.1039468518761589	-0.0251297167337393	-0.04430968163418368	1.167765661531234	0.9111000765336703	-0.3337776494919762	0.4069381812158717	0.06071389582773664	-0.0764126917248009	0.1474883420835735	0.1474883406162429	-0.04486159129115692	-0.3230763274260257	-0.225222671224864	-0.09385598215007082	-0.1635396953383773	0.88116883522402	0.8811688339733857	-0.59375663895255	-0.4236268231552248
